<svg xmlns="http://www.w3.org/2000/svg" width="100" height="100" viewBox="0 0 100 100" version="1.1"><path d="M 36.034 1.601 C 24.535 4.691, 13.340 12.934, 6.528 23.325 C 3.203 28.399, -0.740 38.593, 0.243 39.576 C 0.810 40.144, 12.247 28.498, 16.976 22.538 C 21.890 16.342, 29.480 11.216, 37.213 8.867 C 50.587 4.804, 68.106 7.618, 78.409 15.483 C 82.676 18.740, 91.945 23.389, 92.688 22.645 C 92.897 22.436, 91.293 20.020, 89.123 17.275 C 84.097 10.917, 74.624 4.582, 66.295 2.009 C 58.444 -0.416, 44.249 -0.607, 36.034 1.601 M 41.500 15.634 C 37.650 16.443, 30.675 18.974, 26 21.259 C 19.191 24.586, 15.759 27.146, 8.750 34.125 L -0 42.838 -0 49.352 C -0 54.707, 0.311 55.950, 1.750 56.342 C 2.712 56.603, 14.131 58.495, 27.124 60.545 L 50.747 64.272 72.624 60.596 C 84.656 58.574, 95.513 56.705, 96.750 56.441 C 98.528 56.063, 98.995 55.284, 98.974 52.731 C 98.952 49.959, 98.150 48.932, 93.328 45.500 C 90.237 43.300, 82.489 36.457, 76.110 30.294 C 69.390 23.802, 64.139 19.461, 63.627 19.973 C 63.115 20.485, 63.638 21.996, 64.871 23.564 C 67.292 26.641, 67.561 28, 65.750 28 C 63.280 28, 54 42.800, 54 46.740 C 54 48.035, 51.616 49, 48.418 49 C 46.202 49, 45.999 48.603, 45.985 44.250 C 45.977 41.638, 45.320 38.375, 44.524 37 C 43.729 35.625, 42.803 33.825, 42.467 33 C 41.019 29.447, 40.174 28.512, 37.905 27.949 L 35.500 27.353 38 26.590 C 39.375 26.170, 42.843 24.249, 45.707 22.321 C 50.576 19.043, 51.565 18.780, 60.957 18.263 C 66.481 17.958, 71 17.371, 71 16.957 C 71 15.897, 59.301 13.984, 53.418 14.082 C 50.713 14.126, 45.350 14.825, 41.500 15.634 M 31.189 26.492 C 25.466 29.156, 12.239 37.973, 9.614 40.874 C 8.101 42.546, 8.181 42.627, 10.942 42.222 C 12.557 41.985, 14.651 40.938, 15.595 39.895 C 16.538 38.853, 17.825 38, 18.455 38 C 19.085 38, 22.356 35.779, 25.725 33.064 C 29.094 30.350, 33.234 27.413, 34.925 26.539 C 37.886 25.008, 38.822 23.989, 37.250 24.010 C 36.837 24.015, 34.110 25.132, 31.189 26.492 M 70.746 30.690 C 70.460 31.685, 69.903 33.288, 69.506 34.250 C 68.900 35.723, 69.347 36, 72.334 36 C 77.055 36, 77.510 34.862, 74.097 31.593 C 71.550 29.153, 71.213 29.062, 70.746 30.690 M 26.692 34.814 C 21.086 39.113, 22.184 39.948, 30.883 38.002 C 35.154 37.046, 35.986 36.572, 34.677 35.839 C 33.755 35.323, 33 34.023, 33 32.950 C 33 30.314, 32.285 30.525, 26.692 34.814 M 72.500 39.523 C 68.244 40.617, 67.965 40.822, 70.628 40.904 C 74.124 41.011, 75.417 42.213, 76.381 46.250 C 77.014 48.897, 77.279 49, 83.474 49 L 89.909 49 87.705 46.577 C 86.492 45.244, 84.453 42.769, 83.174 41.077 C 80.637 37.721, 79.917 37.616, 72.500 39.523 M 12.555 45.643 L 8.939 49.155 16.220 48.410 C 20.224 48.001, 26.087 47.657, 29.250 47.645 C 34.750 47.626, 35 47.514, 34.997 45.063 C 34.995 42.507, 34.968 42.499, 25.583 42.316 L 16.172 42.131 12.555 45.643 M 68.738 46.595 C 68.388 46.945, 66.616 47.584, 64.801 48.014 C 61.824 48.719, 62.023 48.805, 66.833 48.898 C 70.542 48.969, 72.046 48.638, 71.771 47.813 C 71.295 46.385, 69.621 45.713, 68.738 46.595" stroke="none" fill="#d4130c" fill-rule="evenodd"/><path d="M 0.547 59.250 C 3.699 69.658, 16.973 79.634, 30.764 81.960 C 44.030 84.198, 57.769 79.500, 66.563 69.719 C 69.003 67.005, 71 64.382, 71 63.892 C 71 62.012, 67.616 63.130, 64.183 66.144 C 57.918 71.645, 52.803 73.296, 43.591 72.790 C 34.720 72.302, 29.631 70.297, 22.406 64.441 C 19.558 62.132, 15.858 60.496, 10.240 59.061 C 0.045 56.458, -0.297 56.465, 0.547 59.250 M 93.972 57.647 C 93.132 57.875, 90.887 61.310, 88.984 65.281 C 79.519 85.031, 56.287 97.134, 36.613 92.565 C 28.338 90.643, 17.655 85.209, 11.500 79.791 C 5.610 74.606, 5.745 76.387, 11.750 83.072 C 21.513 93.942, 34.807 100, 48.895 100 C 63.551 100, 74.393 95.560, 84.647 85.358 C 91.114 78.925, 97.142 68.166, 98.436 60.750 C 99.116 56.852, 98.494 56.420, 93.972 57.647 M 85.500 59.525 C 84.950 59.727, 82.655 60.366, 80.401 60.944 C 77.073 61.798, 75.740 62.899, 73.320 66.793 C 67.089 76.816, 54.617 83.625, 40.500 84.709 C 32.510 85.324, 24.110 83.549, 15.765 79.485 L 10.500 76.920 13.500 79.494 C 15.150 80.909, 19.786 83.707, 23.801 85.711 C 30.539 89.073, 31.928 89.388, 41.801 89.784 C 50.915 90.151, 53.457 89.890, 58.962 88.025 C 67.592 85.102, 73.225 81.680, 79.131 75.774 C 83.446 71.459, 89.964 61.840, 89.991 59.750 C 90 58.989, 87.325 58.855, 85.500 59.525" stroke="none" fill="#1ca4cc" fill-rule="evenodd"/></svg>