<svg width="31" height="66" viewBox="0 0 31 66" fill="none" xmlns="http://www.w3.org/2000/svg">
<path d="M2.39436 63.3875C2.85501 63.0275 3.36707 62.7385 3.91358 62.5302C4.42499 62.3505 4.96087 62.2496 5.50278 62.2311C6.67681 62.2179 7.84714 62.3654 8.98093 62.6699C10.1403 62.9588 11.2498 63.2974 12.0693 63.5768C12.8889 63.8556 13.4286 64.0651 13.4286 64.0651C13.4286 64.0651 12.8989 64.3642 12.0593 64.723C11.008 65.1779 9.90821 65.5123 8.78105 65.7194C7.50714 65.969 6.19388 65.9385 4.93305 65.6299C4.35197 65.5057 3.81293 65.2341 3.36815 64.8412C2.92331 64.4484 2.58791 63.9475 2.39436 63.3875Z" fill="#C4A386"/>
<path d="M5.93302 58.2645C5.50174 59.2997 4.81392 60.2084 3.93409 60.9057C3.51708 61.2293 3.03176 61.4543 2.51481 61.5636C1.98197 61.6723 1.42872 61.6203 0.925675 61.4137C0.890988 60.3576 1.1766 59.3158 1.74526 58.4245C2.28824 57.5964 2.96347 56.8621 3.74418 56.252C4.42239 55.7075 5.13338 55.2048 5.87308 54.7469C6.46276 54.3779 6.87254 54.169 6.87254 54.169C6.87254 54.169 6.87254 54.2985 6.87254 54.5278C6.87254 54.757 6.8126 55.0657 6.74263 55.4645C6.58825 56.4275 6.31636 57.3678 5.93302 58.2645Z" fill="#C4A386"/>
<path d="M14.2688 60.9558C13.7041 60.9493 13.1482 60.8138 12.644 60.56C12.1399 60.3057 11.7008 59.9403 11.3603 59.4908C11.6262 59.0215 11.9847 58.6108 12.4141 58.2836C12.8436 57.9564 13.3352 57.7194 13.859 57.5869C14.9901 57.2854 16.1563 57.1344 17.3273 57.1385C18.5166 57.1385 19.706 57.1385 20.5955 57.1385H22.0848C22.0848 57.1385 21.9748 57.2681 21.7749 57.4675C21.575 57.6669 21.2652 57.9361 20.8854 58.2448C19.9713 58.9958 18.9635 59.6257 17.887 60.1182C16.7621 60.6729 15.5236 60.9594 14.2688 60.9558Z" fill="#C4A386"/>
<path d="M12.0095 56.4012C11.6996 56.8263 11.2894 57.169 10.8153 57.3982C10.3411 57.6281 9.8176 57.7373 9.29097 57.717C8.87503 56.7158 8.85007 55.5958 9.221 54.5779C9.57598 53.6424 10.075 52.7684 10.7002 51.9869C11.2699 51.2096 11.8496 50.5415 12.2694 50.0735C12.4793 49.8239 12.6592 49.6346 12.7792 49.5051L12.969 49.3057C12.969 49.3057 12.969 49.4257 13.0689 49.6346C13.1443 49.9338 13.2044 50.2364 13.2489 50.5415C13.396 51.4961 13.396 52.4675 13.2489 53.4215C13.0923 54.5027 12.6661 55.5272 12.0095 56.4012Z" fill="#C4A386"/>
<path d="M26.2625 48.0999C27.082 47.8408 27.6217 47.6913 27.6217 47.6913C27.6217 47.6913 27.5718 47.8308 27.4618 48.06C27.3519 48.2893 27.182 48.5982 26.9721 48.9769C26.7622 49.3558 26.5023 49.794 26.2025 50.2526C26.0525 50.4818 25.8927 50.7111 25.7228 50.9499L25.5928 51.1296L25.4229 51.3487L25.0731 51.7875C24.2097 52.8723 23.0609 53.6973 21.7548 54.169C21.2139 54.3678 20.6318 54.4293 20.0612 54.3475C19.4905 54.2657 18.9493 54.0436 18.4865 53.7009C18.7534 52.6358 19.3955 51.7021 20.2956 51.0699C20.5054 50.9003 20.7453 50.7409 20.9852 50.5714L21.7448 50.0931L22.5544 49.6245C22.8042 49.4854 23.0641 49.3558 23.324 49.2358C24.2768 48.7921 25.2585 48.4125 26.2625 48.0999Z" fill="#C4A386"/>
<path d="M18.2061 50.1528C18.0703 50.6567 17.8011 51.1152 17.4265 51.48C17.0519 51.8448 16.5859 52.1021 16.0772 52.2257C15.4175 51.391 15.0429 50.3677 15.0077 49.3057C14.9814 48.4215 15.0416 47.5371 15.1877 46.6647C15.2479 46.2231 15.3414 45.7867 15.4675 45.3591C15.5975 44.9206 15.7274 44.522 15.8573 44.1932C15.9873 43.8643 16.0972 43.5852 16.1771 43.3959L16.2871 43.0969L16.497 43.3959C16.6269 43.5952 16.7869 43.8742 16.9667 44.223C17.4312 45.1095 17.803 46.0412 18.0762 47.0035C18.1461 47.2726 18.2161 47.5516 18.276 47.8307C18.328 48.0941 18.3648 48.3603 18.386 48.6279C18.411 48.8931 18.411 49.16 18.386 49.4251C18.3491 49.6728 18.2888 49.9164 18.2061 50.1528Z" fill="#C4A386"/>
<path d="M27.5219 44.0135C27.3263 44.24 27.1124 44.45 26.8822 44.6413C26.6657 44.8281 26.4352 44.9981 26.1926 45.1496C25.7393 45.4796 25.217 45.7031 24.6649 45.8032C24.1127 45.9033 23.545 45.8775 23.0042 45.7276C22.9096 45.1958 22.9438 44.649 23.1041 44.1331C23.1782 43.8887 23.2823 43.6544 23.414 43.4355C23.5443 43.2081 23.6878 42.9885 23.8438 42.7778C24.5601 41.8801 25.4256 41.1115 26.4025 40.5055C27.2626 39.9001 28.157 39.3444 29.081 38.8412L30.3404 38.1635C30.3404 38.1635 30.3404 38.313 30.2604 38.5622C30.1804 38.8114 30.0905 39.1601 29.9406 39.5588C29.6196 40.6083 29.1662 41.6129 28.5913 42.5485C28.2718 43.0626 27.9143 43.5523 27.5219 44.0135Z" fill="#C4A386"/>
<path d="M21.265 43.5951C21.0407 44.0675 20.6961 44.4729 20.2655 44.7711C19.3051 44.2344 18.5891 43.3492 18.2666 42.2996C18.1869 42.0549 18.1235 41.8051 18.0767 41.5521L18.0167 41.1734C18.0167 41.0538 18.0167 40.9243 17.9568 40.7947C17.8972 40.2854 17.8771 39.7724 17.8968 39.26C17.9302 38.3922 18.0137 37.5271 18.1467 36.6689C18.2066 36.33 18.2666 36.051 18.3066 35.8617C18.3466 35.6723 18.3666 35.5627 18.3666 35.5627L18.6164 35.8118C18.839 36.0326 19.0492 36.2655 19.2461 36.5094C19.8661 37.2668 20.4023 38.0888 20.8452 38.961C21.3333 39.9442 21.5962 41.0233 21.6149 42.1202C21.6124 42.379 21.5789 42.6367 21.5149 42.8875C21.4584 43.132 21.3746 43.3694 21.265 43.5951Z" fill="#C4A386"/>
<path d="M29.5406 34.5462C29.4006 34.8107 29.2402 35.0639 29.0608 35.3035C28.88 35.5363 28.6829 35.7561 28.4711 35.9613C28.0886 36.3631 27.6208 36.6745 27.102 36.8727C26.5832 37.071 26.0265 37.1512 25.4727 37.1073C25.2743 36.6076 25.2022 36.0669 25.2628 35.5328C25.2934 35.2785 25.3503 35.028 25.4327 34.7853C25.4967 34.5334 25.5803 34.2869 25.6826 34.0478C25.9233 33.5435 26.2218 33.0686 26.5721 32.6327L27.1118 31.9551C27.2917 31.7258 27.4916 31.5066 27.6815 31.2874C28.4711 30.4303 29.3306 29.633 29.9403 29.045C30.55 28.457 30.9998 28.0684 30.9998 28.0684C30.9998 28.0684 30.9998 28.6663 30.9998 29.5632C30.9531 30.0783 30.8798 30.5905 30.7799 31.098C30.7199 31.377 30.66 31.666 30.59 31.9551C30.5253 32.2523 30.4418 32.5452 30.3401 32.832C30.1136 33.4211 29.8464 33.9939 29.5406 34.5462Z" fill="#C4A386"/>
<path d="M22.5941 36.4596C21.5703 36.1173 20.7114 35.4066 20.1853 34.4664C20.0574 34.2497 19.9472 34.0231 19.8555 33.7887C19.7411 33.5592 19.641 33.3229 19.5556 33.0812C19.3983 32.6163 19.278 32.1398 19.1958 31.6561C19.1059 31.1877 19.006 30.7293 18.956 30.3107C18.956 30.0914 18.956 29.8921 18.896 29.7028C18.836 29.5134 18.896 29.334 18.896 29.1646C18.8409 28.8015 18.8076 28.4354 18.796 28.0684C18.796 28.0684 19.2358 28.3175 19.8655 28.766L20.3752 29.1447C20.5551 29.2942 20.735 29.4436 20.9149 29.6131C21.3052 29.9614 21.6694 30.3377 22.0043 30.7392C22.1743 30.9485 22.3442 31.1677 22.5041 31.397L22.724 31.7457L22.9139 32.1145C23.152 32.5915 23.3267 33.0973 23.4336 33.6194C23.4893 33.8713 23.5161 34.1287 23.5136 34.3867C23.4988 34.6359 23.4586 34.8831 23.3937 35.1242C23.25 35.6318 22.9741 36.0925 22.5941 36.4596Z" fill="#C4A386"/>
<path d="M26.7515 22.0889C27.0214 21.5707 27.3112 21.0923 27.591 20.604L28.3606 19.3583C28.8104 18.6307 29.1402 18.1624 29.1402 18.1624C29.1402 18.1624 29.3101 18.7304 29.4901 19.6074C29.55 20.0559 29.62 20.604 29.66 21.1521C29.66 21.4312 29.66 21.7301 29.66 22.0291C29.66 22.3281 29.66 22.637 29.66 22.946C29.6113 23.5644 29.511 24.1778 29.3601 24.7797C29.2029 25.3569 28.9675 25.9101 28.6605 26.424C28.3845 26.9041 28.001 27.314 27.5397 27.6218C27.0786 27.9295 26.5522 28.1267 26.0019 28.198C25.8522 27.9712 25.7313 27.7269 25.6421 27.4704C25.5476 27.2295 25.4806 26.9788 25.4422 26.723C25.3655 26.2118 25.3892 25.6905 25.5121 25.1883C25.6266 24.6495 25.7905 24.1224 26.0019 23.6137C26.2218 23.0855 26.4916 22.5473 26.7515 22.0889Z" fill="#C4A386"/>
<path d="M20.285 26.5934C19.9313 26.2478 19.6224 25.8594 19.3655 25.4374C19.0848 25.0416 18.8405 24.6214 18.6359 24.1817C18.5259 23.9724 18.446 23.7631 18.346 23.5638L18.0861 22.9659C17.9262 22.5772 17.8063 22.2184 17.6964 21.9095C17.4664 21.3016 17.3565 20.9129 17.3565 20.9129C17.773 21.0204 18.1834 21.1501 18.5859 21.3016C19.4857 21.6387 20.3361 22.0946 21.1146 22.6569C21.342 22.8121 21.559 22.9818 21.7642 23.1652C21.9641 23.3479 22.1542 23.5408 22.3339 23.7432C22.6926 24.1439 22.9921 24.5936 23.2235 25.0786C23.4281 25.5365 23.5337 26.0323 23.5333 26.5336C23.5401 26.7832 23.5064 27.0323 23.4334 27.2711C23.3512 27.5268 23.237 27.7713 23.0935 27.9986C22.0211 27.8728 21.0271 27.3755 20.285 26.5934Z" fill="#C4A386"/>
<path d="M23.7938 18.88C23.6378 18.6772 23.5068 18.4563 23.404 18.2222C23.3053 17.9916 23.2316 17.751 23.1841 17.5047C23.1841 17.2556 23.1142 16.9965 23.0842 16.7373C23.0519 16.1942 23.0821 15.6492 23.1741 15.1129C23.2503 14.5388 23.3604 13.9698 23.504 13.4088C23.7938 12.2726 24.1036 11.2063 24.3935 10.419C24.6833 9.63168 24.8633 9.0337 24.8633 9.0337C24.8633 9.0337 24.9432 9.16332 25.0631 9.38254C25.1831 9.60176 25.343 9.94063 25.5329 10.3791C25.9855 11.3805 26.3208 12.4305 26.5324 13.5084C26.6316 14.1049 26.6884 14.7077 26.7023 15.3122C26.6989 15.6124 26.6755 15.912 26.6323 16.2091C26.5855 16.4949 26.5221 16.7778 26.4424 17.0562C26.2972 17.5871 26.038 18.0802 25.6829 18.5013C25.3195 18.9406 24.8524 19.283 24.3235 19.4978C24.1196 19.3169 23.9414 19.109 23.7938 18.88Z" fill="#C4A386"/>
<path d="M14.3183 14.5548C14.2084 14.3954 14.1584 14.3057 14.1584 14.3057H14.5082C14.7481 14.3057 15.0579 14.3057 15.4377 14.3854C15.8175 14.4651 16.2673 14.505 16.747 14.6146C16.9869 14.6645 17.2368 14.7342 17.4867 14.804C17.7365 14.8737 17.9764 14.9734 18.2262 15.0731C18.7376 15.2665 19.2268 15.5137 19.6855 15.8105C20.1236 16.0899 20.5234 16.4249 20.8749 16.8071C21.0366 16.999 21.1742 17.2098 21.2847 17.4349C21.393 17.6554 21.48 17.8857 21.5445 18.1226C21.6128 18.3625 21.6464 18.6108 21.6445 18.8601C21.6227 19.1271 21.5724 19.391 21.4945 19.6474C20.95 19.753 20.39 19.753 19.8454 19.6474C19.3483 19.5337 18.8703 19.3491 18.4262 19.0992C18.2163 18.9697 18.0064 18.8401 17.8065 18.6906L17.5267 18.4614L17.2368 18.2223C16.8756 17.9193 16.5412 17.5859 16.2373 17.2257C15.9373 16.9109 15.6569 16.5781 15.3978 16.2291L15.2178 15.97L15.0479 15.7408C14.928 15.5813 14.828 15.4318 14.7381 15.3023C14.6482 15.1727 14.4083 14.7243 14.3183 14.5548Z" fill="#C4A386"/>
<path d="M20.5353 11.545C20.0629 11.315 19.6545 10.9728 19.3459 10.5484C19.0366 10.1443 18.8091 9.68397 18.6763 9.1931C18.1325 7.09969 18.2764 4.87534 18.4664 2.74522C18.5564 1.91805 18.6463 1.35996 18.6463 1.35996C19.0507 1.67359 19.3567 2.03765 19.6558 2.4562C19.9588 2.85202 20.2391 3.26456 20.4953 3.69196C20.7938 4.18982 21.0608 4.7057 21.2949 5.23668C21.5325 5.79119 21.723 6.36456 21.8646 6.95083C21.9831 7.5208 22.0301 8.10331 22.0045 8.68486C21.9906 9.24098 21.8512 9.78683 21.5969 10.2819C21.3426 10.777 20.9797 11.2087 20.5353 11.545Z" fill="#C4A386"/>
<path d="M12.1399 10.9469C11.7501 10.6579 11.3903 10.3789 11.0705 10.0998C10.7507 9.82076 10.4508 9.55169 10.2209 9.32249C9.99104 9.0933 9.78119 8.89396 9.65122 8.75443L9.44136 8.53521C9.86423 8.45014 10.2912 8.38697 10.7206 8.34584C11.1491 8.30411 11.5796 8.28745 12.01 8.29605C12.5322 8.29234 13.0537 8.3324 13.5692 8.41563C14.6461 8.54034 15.6758 8.92709 16.5676 9.54172C16.9709 9.845 17.3104 10.2242 17.5671 10.6579C17.7933 11.1121 17.8999 11.6163 17.8769 12.1229C16.8906 12.5483 15.7834 12.6049 14.7586 12.2823C14.278 12.1434 13.8152 11.9494 13.3793 11.7043C12.9476 11.4833 12.5333 11.2301 12.1399 10.9469Z" fill="#C4A386"/>
<path d="M15.3313 6.40665C14.7433 6.40665 13.8257 6.46046 13.0791 5.94436C12.8766 5.79636 12.6831 5.63666 12.4994 5.46598C12.3071 5.29583 12.1268 5.11266 11.9597 4.91786C11.5988 4.52908 11.2648 4.11618 10.9602 3.6821C10.3805 2.82508 9.88074 1.93809 9.52098 1.27039C9.34104 0.941498 9.21539 0.652647 9.11545 0.453364L9.04781 0.283121L9.01124 0.164185L9.47692 0.196834C9.78683 0.23767 9.96808 0.264902 10.2706 0.343588C11.2255 0.58526 12.1456 0.946931 13.0092 1.41989C14.0067 1.93457 14.8693 2.67523 15.5278 3.58245C15.8333 4.0135 16.0382 4.50723 16.1275 5.02753C16.227 5.46377 16.2242 5.90163 16.1275 6.35296" fill="#C4A386"/>
</svg>
