<svg width="31" height="66" viewBox="0 0 31 66" fill="none" xmlns="http://www.w3.org/2000/svg">
<path d="M28.6054 63.3875C28.1448 63.0275 27.6327 62.7385 27.0862 62.5302C26.5748 62.3505 26.0389 62.2496 25.497 62.2311C24.323 62.2179 23.1526 62.3654 22.0188 62.6699C20.8594 62.9588 19.75 63.2974 18.9305 63.5768C18.1109 63.8556 17.5711 64.0651 17.5711 64.0651C17.5711 64.0651 18.1009 64.3642 18.9405 64.723C19.9917 65.1779 21.0916 65.5123 22.2187 65.7194C23.4926 65.969 24.8059 65.9385 26.0667 65.6299C26.6478 65.5057 27.1868 65.2341 27.6316 64.8412C28.0765 64.4484 28.4119 63.9475 28.6054 63.3875Z" fill="#C4A386"/>
<path d="M25.0667 58.2645C25.498 59.2997 26.1859 60.2084 27.0657 60.9057C27.4827 61.2293 27.968 61.4543 28.485 61.5636C29.0178 61.6723 29.571 61.6203 30.0741 61.4137C30.1088 60.3576 29.8232 59.3158 29.2545 58.4245C28.7115 57.5964 28.0363 56.8621 27.2556 56.252C26.5774 55.7075 25.8664 55.2048 25.1267 54.7469C24.537 54.3779 24.1272 54.169 24.1272 54.169C24.1272 54.169 24.1272 54.2985 24.1272 54.5278C24.1272 54.757 24.1872 55.0657 24.2571 55.4645C24.4115 56.4275 24.6834 57.3678 25.0667 58.2645Z" fill="#C4A386"/>
<path d="M16.7309 60.9558C17.2957 60.9493 17.8515 60.8138 18.3557 60.56C18.8599 60.3057 19.299 59.9403 19.6394 59.4908C19.3736 59.0215 19.0151 58.6108 18.5856 58.2836C18.1561 57.9564 17.6646 57.7194 17.1407 57.5869C16.0096 57.2854 14.8434 57.1344 13.6725 57.1385C12.4831 57.1385 11.2937 57.1385 10.4043 57.1385H8.915C8.915 57.1385 9.02497 57.2681 9.22485 57.4675C9.42473 57.6669 9.73458 57.9361 10.1144 58.2448C11.0284 58.9958 12.0363 59.6257 13.1128 60.1182C14.2376 60.6729 15.4761 60.9594 16.7309 60.9558Z" fill="#C4A386"/>
<path d="M18.9902 56.4012C19.3001 56.8263 19.7104 57.169 20.1845 57.3982C20.6587 57.6281 21.1822 57.7373 21.7088 57.717C22.1247 56.7158 22.1497 55.5958 21.7788 54.5779C21.4238 53.6424 20.9247 52.7684 20.2995 51.9869C19.7299 51.2096 19.1502 50.5415 18.7304 50.0735C18.5205 49.8239 18.3406 49.6346 18.2206 49.5051L18.0308 49.3057C18.0308 49.3057 18.0308 49.4257 17.9308 49.6346C17.8554 49.9338 17.7954 50.2364 17.7509 50.5415C17.6037 51.4961 17.6037 52.4675 17.7509 53.4215C17.9075 54.5027 18.3336 55.5272 18.9902 56.4012Z" fill="#C4A386"/>
<path d="M4.73732 48.0999C3.91774 47.8408 3.37803 47.6913 3.37803 47.6913C3.37803 47.6913 3.428 47.8308 3.53798 48.06C3.64789 48.2893 3.81779 48.5982 4.02771 48.9769C4.23756 49.3558 4.49744 49.794 4.79732 50.2526C4.94723 50.4818 5.10711 50.7111 5.27702 50.9499L5.40699 51.1296L5.5769 51.3487L5.92669 51.7875C6.7901 52.8723 7.93887 53.6973 9.24496 54.169C9.78586 54.3678 10.3679 54.4293 10.9386 54.3475C11.5093 54.2657 12.0505 54.0436 12.5133 53.7009C12.2464 52.6358 11.6043 51.7021 10.7042 51.0699C10.4943 50.9003 10.2545 50.7409 10.0146 50.5714L9.25499 50.0931L8.44538 49.6245C8.19553 49.4854 7.93565 49.3558 7.67577 49.2358C6.72293 48.7921 5.74126 48.4125 4.73732 48.0999Z" fill="#C4A386"/>
<path d="M12.7937 50.1528C12.9295 50.6567 13.1987 51.1152 13.5733 51.48C13.9478 51.8448 14.4139 52.1021 14.9226 52.2257C15.5822 51.391 15.9569 50.3677 15.992 49.3057C16.0184 48.4215 15.9582 47.5371 15.8121 46.6647C15.7519 46.2231 15.6584 45.7867 15.5323 45.3591C15.4023 44.9206 15.2724 44.522 15.1425 44.1932C15.0125 43.8643 14.9026 43.5852 14.8227 43.3959L14.7127 43.0969L14.5028 43.3959C14.3729 43.5952 14.2129 43.8742 14.033 44.223C13.5686 45.1095 13.1968 46.0412 12.9236 47.0035C12.8536 47.2726 12.7837 47.5516 12.7237 47.8307C12.6717 48.0941 12.635 48.3603 12.6138 48.6279C12.5888 48.8931 12.5888 49.16 12.6138 49.4251C12.6507 49.6728 12.7109 49.9164 12.7937 50.1528Z" fill="#C4A386"/>
<path d="M3.47791 44.0135C3.67343 44.24 3.8874 44.45 4.11761 44.6413C4.33403 44.8281 4.5646 44.9981 4.80722 45.1496C5.26048 45.4796 5.78274 45.7031 6.33492 45.8032C6.8871 45.9033 7.45481 45.8775 7.99558 45.7276C8.09021 45.1958 8.05594 44.649 7.89564 44.1331C7.82155 43.8887 7.71749 43.6544 7.58579 43.4355C7.45546 43.2081 7.31194 42.9885 7.156 42.7778C6.43964 41.8801 5.57421 41.1115 4.59731 40.5055C3.73713 39.9001 2.8428 39.3444 1.91874 38.8412L0.659399 38.1635C0.659399 38.1635 0.659398 38.313 0.739339 38.5622C0.819339 38.8114 0.909249 39.1601 1.05916 39.5588C1.38017 40.6083 1.83355 41.6129 2.40847 42.5485C2.728 43.0626 3.08549 43.5523 3.47791 44.0135Z" fill="#C4A386"/>
<path d="M9.73477 43.5951C9.95906 44.0675 10.3037 44.4729 10.7342 44.7711C11.6947 44.2344 12.4106 43.3492 12.7332 42.2996C12.8129 42.0549 12.8763 41.8051 12.9231 41.5521L12.9831 41.1734C12.9831 41.0538 12.9831 40.9243 13.043 40.7947C13.1026 40.2854 13.1226 39.7724 13.103 39.26C13.0696 38.3922 12.9861 37.5271 12.8531 36.6689C12.7932 36.33 12.7332 36.051 12.6932 35.8617C12.6532 35.6723 12.6332 35.5627 12.6332 35.5627L12.3834 35.8118C12.1607 36.0326 11.9505 36.2655 11.7537 36.5094C11.1336 37.2668 10.5975 38.0888 10.1545 38.961C9.66647 39.9442 9.4036 41.0233 9.38492 42.1202C9.38736 42.379 9.42092 42.6367 9.48486 42.8875C9.54133 43.132 9.62515 43.3694 9.73477 43.5951Z" fill="#C4A386"/>
<path d="M1.45922 34.5462C1.59916 34.8107 1.75958 35.0639 1.93899 35.3035C2.11982 35.5363 2.31684 35.7561 2.52866 35.9613C2.91123 36.3631 3.37899 36.6745 3.89779 36.8727C4.4166 37.071 4.97326 37.1512 5.52711 37.1073C5.72544 36.6076 5.79756 36.0669 5.73702 35.5328C5.70639 35.2785 5.6495 35.028 5.56711 34.7853C5.50305 34.5334 5.41947 34.2869 5.3172 34.0478C5.07648 33.5435 4.77797 33.0686 4.4277 32.6327L3.88794 31.9551C3.70806 31.7258 3.50818 31.5066 3.31827 31.2874C2.52866 30.4303 1.66913 29.633 1.05946 29.045C0.449791 28.457 0 28.0684 0 28.0684C0 28.0684 0 28.6663 0 29.5632C0.0466269 30.0783 0.12 30.5905 0.21988 31.098C0.27988 31.377 0.339821 31.666 0.409791 31.9551C0.474507 32.2523 0.557971 32.5452 0.659642 32.832C0.88621 33.4211 1.15337 33.9939 1.45922 34.5462Z" fill="#C4A386"/>
<path d="M8.40569 36.4596C9.42946 36.1173 10.2883 35.4066 10.8145 34.4664C10.9424 34.2497 11.0526 34.0231 11.1443 33.7887C11.2587 33.5592 11.3588 33.3229 11.4441 33.0812C11.6015 32.6163 11.7218 32.1398 11.804 31.6561C11.8939 31.1877 11.9938 30.7293 12.0438 30.3107C12.0438 30.0914 12.0438 29.8921 12.1038 29.7028C12.1637 29.5134 12.1038 29.334 12.1038 29.1646C12.1588 28.8015 12.1922 28.4354 12.2037 28.0684C12.2037 28.0684 11.764 28.3175 11.1343 28.766L10.6246 29.1447C10.4447 29.2942 10.2647 29.4436 10.0849 29.6131C9.69453 29.9614 9.33041 30.3377 8.99543 30.7392C8.82552 30.9485 8.65561 31.1677 8.49567 31.397L8.27579 31.7457L8.08587 32.1145C7.84778 32.5915 7.67304 33.0973 7.56617 33.6194C7.51047 33.8713 7.48366 34.1287 7.48617 34.3867C7.50098 34.6359 7.54116 34.8831 7.60611 35.1242C7.74981 35.6318 8.02569 36.0925 8.40569 36.4596Z" fill="#C4A386"/>
<path d="M4.24827 22.0889C3.97841 21.5707 3.68856 21.0923 3.40874 20.604L2.63913 19.3583C2.18934 18.6307 1.85955 18.1624 1.85955 18.1624C1.85955 18.1624 1.68964 18.7304 1.5097 19.6074C1.44976 20.0559 1.37979 20.604 1.33979 21.1521C1.33979 21.4312 1.33979 21.7301 1.33979 22.0291C1.33979 22.3281 1.33979 22.637 1.33979 22.946C1.3885 23.5644 1.4888 24.1778 1.63967 24.7797C1.79692 25.3569 2.03227 25.9101 2.33931 26.424C2.61525 26.9041 2.99877 27.314 3.46003 27.6218C3.92122 27.9295 4.44755 28.1267 4.99788 28.198C5.14755 27.9712 5.26844 27.7269 5.3577 27.4704C5.45215 27.2295 5.51919 26.9788 5.55758 26.723C5.6343 26.2118 5.61053 25.6905 5.48767 25.1883C5.37322 24.6495 5.20928 24.1224 4.99788 23.6137C4.778 23.0855 4.50815 22.5473 4.24827 22.0889Z" fill="#C4A386"/>
<path d="M10.7148 26.5934C11.0684 26.2478 11.3773 25.8594 11.6343 25.4374C11.915 25.0416 12.1592 24.6214 12.3639 24.1817C12.4739 23.9724 12.5538 23.7631 12.6537 23.5638L12.9136 22.9659C13.0736 22.5772 13.1935 22.2184 13.3034 21.9095C13.5333 21.3016 13.6432 20.9129 13.6432 20.9129C13.2268 21.0204 12.8164 21.1501 12.4139 21.3016C11.5141 21.6387 10.6637 22.0946 9.88521 22.6569C9.65781 22.8121 9.44079 22.9818 9.23554 23.1652C9.03572 23.3479 8.84557 23.5408 8.66587 23.7432C8.30718 24.1439 8.00766 24.5936 7.77631 25.0786C7.57166 25.5365 7.4661 26.0323 7.46646 26.5336C7.45966 26.7832 7.49339 27.0323 7.5664 27.2711C7.64861 27.5268 7.76282 27.7713 7.90622 27.9986C8.97864 27.8728 9.97267 27.3755 10.7148 26.5934Z" fill="#C4A386"/>
<path d="M7.20594 18.88C7.362 18.6772 7.49292 18.4563 7.59579 18.2222C7.69448 17.9916 7.76821 17.751 7.81567 17.5047C7.81567 17.2556 7.88558 16.9965 7.91561 16.7373C7.94791 16.1942 7.9177 15.6492 7.82564 15.1129C7.74952 14.5388 7.63937 13.9698 7.49579 13.4088C7.20594 12.2726 6.89615 11.2063 6.6063 10.419C6.31644 9.63168 6.1365 9.0337 6.1365 9.0337C6.1365 9.0337 6.05657 9.16332 5.93663 9.38254C5.81669 9.60176 5.65674 9.94063 5.46689 10.3791C5.0143 11.3805 4.67895 12.4305 4.46737 13.5084C4.36815 14.1049 4.31137 14.7077 4.29746 15.3122C4.30092 15.6124 4.32427 15.912 4.36743 16.2091C4.4143 16.4949 4.4777 16.7778 4.55734 17.0562C4.70253 17.5871 4.96176 18.0802 5.31692 18.5013C5.68027 18.9406 6.14737 19.283 6.67627 19.4978C6.88021 19.3169 7.05842 19.109 7.20594 18.88Z" fill="#C4A386"/>
<path d="M16.6815 14.5548C16.7914 14.3954 16.8414 14.3057 16.8414 14.3057H16.4916C16.2517 14.3057 15.9418 14.3057 15.5621 14.3854C15.1822 14.4651 14.7325 14.505 14.2527 14.6146C14.0129 14.6645 13.763 14.7342 13.5131 14.804C13.2633 14.8737 13.0234 14.9734 12.7735 15.0731C12.2622 15.2665 11.773 15.5137 11.3142 15.8105C10.8762 16.0899 10.4763 16.4249 10.1249 16.8071C9.9632 16.999 9.82558 17.2098 9.71508 17.4349C9.60678 17.6554 9.51979 17.8857 9.45526 18.1226C9.38702 18.3625 9.3534 18.6108 9.35525 18.8601C9.3771 19.1271 9.42737 19.391 9.50523 19.6474C10.0498 19.753 10.6098 19.753 11.1544 19.6474C11.6514 19.5337 12.1295 19.3491 12.5736 19.0992C12.7835 18.9697 12.9934 18.8401 13.1933 18.6906L13.4731 18.4614L13.763 18.2223C14.1242 17.9193 14.4586 17.5859 14.7625 17.2257C15.0625 16.9109 15.3429 16.5781 15.602 16.2291L15.7819 15.97L15.9519 15.7408C16.0718 15.5813 16.1717 15.4318 16.2616 15.3023C16.3516 15.1727 16.5915 14.7243 16.6815 14.5548Z" fill="#C4A386"/>
<path d="M10.4645 11.545C10.9368 11.315 11.3453 10.9728 11.6539 10.5484C11.9632 10.1443 12.1906 9.68397 12.3235 9.1931C12.8673 7.09969 12.7234 4.87534 12.5334 2.74522C12.4434 1.91805 12.3535 1.35996 12.3535 1.35996C11.9491 1.67359 11.643 2.03765 11.344 2.4562C11.041 2.85202 10.7607 3.26456 10.5044 3.69196C10.206 4.18982 9.93894 4.7057 9.70485 5.23668C9.4673 5.79119 9.27673 6.36456 9.13518 6.95083C9.01667 7.5208 8.96963 8.10331 8.99524 8.68486C9.00921 9.24098 9.14855 9.78683 9.40288 10.2819C9.65721 10.777 10.0201 11.2087 10.4645 11.545Z" fill="#C4A386"/>
<path d="M18.8598 10.9469C19.2496 10.6579 19.6095 10.3789 19.9293 10.0998C20.2491 9.82076 20.549 9.55169 20.7788 9.32249C21.0087 9.0933 21.2186 8.89396 21.3486 8.75443L21.5584 8.53521C21.1355 8.45014 20.7086 8.38697 20.2791 8.34584C19.8506 8.30411 19.4201 8.28745 18.9897 8.29605C18.4676 8.29234 17.946 8.3324 17.4306 8.41563C16.3537 8.54034 15.324 8.92709 14.4321 9.54172C14.0289 9.845 13.6893 10.2242 13.4327 10.6579C13.2065 11.1121 13.0998 11.6163 13.1228 12.1229C14.1092 12.5483 15.2164 12.6049 16.2412 12.2823C16.7218 12.1434 17.1846 11.9494 17.6205 11.7043C18.0521 11.4833 18.4665 11.2301 18.8598 10.9469Z" fill="#C4A386"/>
<path d="M15.6685 6.40665C16.2565 6.40665 17.1741 6.46046 17.9207 5.94436C18.1232 5.79636 18.3167 5.63666 18.5003 5.46598C18.6926 5.29583 18.873 5.11266 19.0401 4.91786C19.401 4.52908 19.735 4.11618 20.0396 3.6821C20.6193 2.82508 21.119 1.93809 21.4788 1.27039C21.6587 0.941498 21.7844 0.652647 21.8843 0.453364L21.952 0.283121L21.9885 0.164185L21.5229 0.196834C21.2129 0.23767 21.0317 0.264902 20.7292 0.343588C19.7743 0.58526 18.8541 0.946931 17.9906 1.41989C16.9931 1.93457 16.1305 2.67523 15.472 3.58245C15.1664 4.0135 14.9615 4.50723 14.8723 5.02753C14.7728 5.46377 14.7756 5.90163 14.8723 6.35296" fill="#C4A386"/>
</svg>
